<svg width="350" viewBox="0 0 154.093 96.308" xmlns:xlink="http://www.w3.org/1999/xlink" xmlns="http://www.w3.org/2000/svg"><defs><radialGradient xlink:href="#a" id="b" cx="-164.471" cy="162.1" fx="-164.471" fy="162.1" r="105.833" gradientTransform="matrix(.728 0 0 .455 -35.983 72.099)" gradientUnits="userSpaceOnUse"/><linearGradient id="a"><stop style="stop-color:#0b2f2b;stop-opacity:1" offset="0"/><stop style="stop-color:#0c0c0c;stop-opacity:1" offset="1"/></linearGradient></defs><path style="fill:url(#b);stroke-width:2.75577" transform="matrix(-1 0 0 1 -55.245 -84.138)" d="M-160.17 84.138h55.757c27.24 0 49.168 21.476 49.168 48.154 0 26.677-21.929 48.154-49.168 48.154h-55.757c-27.24 0-49.168-21.477-49.168-48.154s21.929-48.154 49.168-48.154"/><path style="baseline-shift:baseline;display:inline;overflow:visible;vector-effect:none;fill:#fff;fill-opacity:.182836;stroke-width:1.00872;stop-color:#000" d="M98.42 117.619c8.268 0 14.966 6.548 14.966 14.672 0 8.123-6.698 14.673-14.966 14.673H82.36c-8.268 0-14.966-6.55-14.966-14.673s6.698-14.672 14.966-14.672zm0 1.602H82.36c-7.426 0-13.364 5.824-13.364 13.07s5.938 13.072 13.364 13.072h16.06c7.426 0 13.364-5.826 13.364-13.072s-5.938-13.07-13.364-13.07m32.485-1.601c-8.115 0-14.672 6.556-14.672 14.67s6.557 14.674 14.672 14.674h3.3c6.755 0 12.431-4.544 14.145-10.747h-1.665a13.02 13.02 0 0 1-12.48 9.146h-3.3a13.025 13.025 0 0 1-13.07-13.072c0-7.255 5.814-13.07 13.07-13.07h3.3a13.02 13.02 0 0 1 12.48 9.144h1.665a14.66 14.66 0 0 0-14.144-10.746zm51.319-.001c8.267 0 14.965 6.548 14.965 14.672 0 8.123-6.698 14.673-14.965 14.673h-16.061c-8.267 0-14.965-6.55-14.965-14.673s6.698-14.672 14.965-14.672zm0 1.602h-16.061c-7.426 0-13.364 5.824-13.364 13.07s5.938 13.072 13.364 13.072h16.06c7.426 0 13.364-5.826 13.364-13.072s-5.938-13.07-13.363-13.07" transform="translate(-55.245 -84.138)"/><path style="baseline-shift:baseline;display:inline;overflow:visible;vector-effect:none;fill:#fff;fill-opacity:.136194;stroke-width:1.00872;stop-color:#000" d="M93.129 117.619c8.267 0 14.965 6.548 14.965 14.672 0 8.123-6.698 14.673-14.965 14.673H77.068c-8.267 0-14.965-6.55-14.965-14.673s6.698-14.672 14.965-14.672zm0 1.602H77.068c-7.426 0-13.364 5.824-13.364 13.07s5.938 13.072 13.364 13.072h16.06c7.426 0 13.364-5.826 13.364-13.072s-5.938-13.07-13.363-13.07m32.484-1.601c-8.115 0-14.672 6.556-14.672 14.67s6.557 14.674 14.672 14.674h3.301c6.754 0 12.43-4.544 14.144-10.747h-1.665a13.02 13.02 0 0 1-12.479 9.146h-3.301a13.025 13.025 0 0 1-13.07-13.072c0-7.255 5.815-13.07 13.07-13.07h3.301a13.02 13.02 0 0 1 12.48 9.144h1.665a14.66 14.66 0 0 0-14.145-10.746zm51.319-.001c8.267 0 14.965 6.548 14.965 14.672 0 8.123-6.698 14.673-14.965 14.673h-16.06c-8.268 0-14.966-6.55-14.966-14.673s6.698-14.672 14.965-14.672zm0 1.602h-16.06c-7.426 0-13.364 5.824-13.364 13.07s5.938 13.072 13.363 13.072h16.061c7.426 0 13.364-5.826 13.364-13.072s-5.938-13.07-13.364-13.07" transform="translate(-55.245 -84.138)"/><path style="baseline-shift:baseline;display:inline;overflow:visible;vector-effect:none;fill:#fff;fill-opacity:.0764925;stroke-width:1.00872;stop-color:#000" d="M87.837 117.619c8.267 0 14.965 6.548 14.965 14.672 0 8.123-6.698 14.673-14.965 14.673h-16.06c-8.268 0-14.966-6.55-14.966-14.673s6.698-14.672 14.965-14.672zm0 1.602h-16.06c-7.426 0-13.364 5.824-13.364 13.07s5.938 13.072 13.363 13.072h16.061c7.426 0 13.363-5.826 13.363-13.072s-5.937-13.07-13.363-13.07m32.484-1.601c-8.114 0-14.671 6.556-14.671 14.67s6.557 14.674 14.671 14.674h3.301c6.754 0 12.43-4.544 14.145-10.747h-1.665a13.02 13.02 0 0 1-12.48 9.146h-3.3a13.025 13.025 0 0 1-13.07-13.072c0-7.255 5.814-13.07 13.07-13.07h3.3a13.02 13.02 0 0 1 12.48 9.144h1.665a14.66 14.66 0 0 0-14.145-10.746zm51.319-.001c8.268 0 14.966 6.548 14.966 14.672 0 8.123-6.698 14.673-14.966 14.673h-16.06c-8.268 0-14.966-6.55-14.966-14.673s6.698-14.672 14.966-14.672zm0 1.602h-16.06c-7.426 0-13.364 5.824-13.364 13.07s5.938 13.072 13.364 13.072h16.06c7.426 0 13.364-5.826 13.364-13.072s-5.938-13.07-13.364-13.07" transform="translate(-55.245 -84.138)"/><path style="baseline-shift:baseline;display:inline;overflow:visible;vector-effect:none;fill:#fff;fill-opacity:.0447761;stroke-width:1.00872;stop-color:#000" d="M66.485 117.619a15.1 15.1 0 0 0-9.974 3.726q-.34 1.44-.59 2.911c2.437-3.069 6.25-5.035 10.564-5.035h16.06c7.426 0 13.364 5.824 13.364 13.07s-5.938 13.072-13.364 13.072h-16.06c-4.315 0-8.128-1.967-10.565-5.037q.25 1.472.59 2.912a15.1 15.1 0 0 0 9.975 3.726h16.06c8.268 0 14.965-6.55 14.965-14.673s-6.697-14.672-14.965-14.672zm48.545.001c-8.115 0-14.672 6.556-14.672 14.67s6.557 14.674 14.672 14.674h3.3c6.755 0 12.431-4.544 14.145-10.747h-1.665a13.02 13.02 0 0 1-12.48 9.146h-3.3a13.025 13.025 0 0 1-13.07-13.072c0-7.255 5.814-13.07 13.07-13.07h3.3a13.02 13.02 0 0 1 12.48 9.144h1.665a14.66 14.66 0 0 0-14.144-10.746zm51.319-.001c8.267 0 14.965 6.548 14.965 14.672 0 8.123-6.698 14.673-14.965 14.673h-16.061c-8.267 0-14.965-6.55-14.965-14.673s6.698-14.672 14.965-14.672zm0 1.602h-16.061c-7.426 0-13.364 5.824-13.364 13.07s5.938 13.072 13.364 13.072h16.06c7.426 0 13.364-5.826 13.364-13.072s-5.938-13.07-13.363-13.07" transform="translate(-55.245 -84.138)"/><path style="baseline-shift:baseline;display:inline;overflow:visible;vector-effect:none;fill:#fff;fill-opacity:1;stroke-width:1.00872;stop-color:#000" d="M103.712 117.619c8.267 0 14.965 6.548 14.965 14.672 0 8.123-6.698 14.673-14.965 14.673h-16.06c-8.268 0-14.966-6.55-14.966-14.673s6.698-14.672 14.965-14.672zm0 1.602h-16.06c-7.426 0-13.364 5.824-13.364 13.07s5.938 13.072 13.363 13.072h16.061c7.426 0 13.363-5.826 13.363-13.072s-5.937-13.07-13.363-13.07m32.484-1.601c-8.114 0-14.671 6.556-14.671 14.67s6.557 14.674 14.671 14.674h3.301c6.754 0 12.43-4.544 14.145-10.747h-1.665a13.02 13.02 0 0 1-12.48 9.146h-3.3a13.025 13.025 0 0 1-13.07-13.072c0-7.255 5.814-13.07 13.07-13.07h3.3a13.02 13.02 0 0 1 12.48 9.144h1.665a14.66 14.66 0 0 0-14.145-10.746zm51.319-.001c8.268 0 14.966 6.548 14.966 14.672 0 8.123-6.698 14.673-14.966 14.673h-16.06c-8.268 0-14.966-6.55-14.966-14.673s6.698-14.672 14.966-14.672zm0 1.602h-16.06c-7.426 0-13.364 5.824-13.364 13.07s5.938 13.072 13.364 13.072h16.06c7.426 0 13.364-5.826 13.364-13.072s-5.938-13.07-13.364-13.07" transform="translate(-55.245 -84.138)"/><path style="baseline-shift:baseline;display:inline;overflow:visible;vector-effect:none;fill:#fff;stroke-width:.209328;stop-color:#000" d="M152.413 150.222c-1.715 0-3.105 1.36-3.105 3.045h.332c0-1.504 1.233-2.712 2.773-2.712h3.333c1.541 0 2.774 1.208 2.774 2.712h.332c0-1.686-1.39-3.045-3.106-3.045z" transform="translate(-55.245 -84.138)"/><path style="baseline-shift:baseline;display:inline;overflow:visible;vector-effect:none;fill:#fff;stroke-width:.359566;stop-color:#000" d="M154.246 150.222h-.332v6.09h.332z" transform="translate(-55.245 -84.138)"/><path style="baseline-shift:baseline;display:inline;overflow:visible;vector-effect:none;fill:#fff;stroke-width:.254257;stop-color:#000" d="M158.852 153.267h-.332v3.045h.332zm-9.212 0h-.332v3.045h.332z" transform="translate(-55.245 -84.138)"/><path style="baseline-shift:baseline;display:inline;overflow:visible;vector-effect:none;fill:#fff;stroke-width:.209328;stop-color:#000" d="M142.452 150.222c-1.716 0-3.106 1.36-3.106 3.045 0 1.686 1.39 3.045 3.106 3.045h3.333c1.428 0 2.63-.942 2.993-2.23h-.346c-.35 1.103-1.397 1.898-2.647 1.898h-3.333c-1.541 0-2.773-1.21-2.773-2.713s1.232-2.712 2.773-2.712h3.333c1.25 0 2.296.795 2.647 1.898h.347c-.363-1.289-1.566-2.23-2.994-2.23z" transform="translate(-55.245 -84.138)"/><path style="baseline-shift:baseline;display:inline;overflow:visible;vector-effect:none;fill:#fff;stroke-width:.373208;stop-color:#000" d="M139.557 153.101v.332h6.56v-.332z" transform="translate(-55.245 -84.138)"/><path style="baseline-shift:baseline;display:inline;overflow:visible;vector-effect:none;fill:#fff;stroke-width:.209328;stop-color:#000" d="M162.997 150.222c-1.716 0-3.106 1.36-3.106 3.045h.332c0-1.504 1.233-2.712 2.774-2.712h3.332c1.541 0 2.774 1.208 2.774 2.712h.332c0-1.686-1.39-3.045-3.106-3.045z" transform="translate(-55.245 -84.138)"/><path style="baseline-shift:baseline;display:inline;overflow:visible;vector-effect:none;fill:#fff;stroke-width:.254257;stop-color:#000" d="M169.435 153.267h-.332v3.045h.332zm-9.212 0h-.332v3.045h.332z" transform="translate(-55.245 -84.138)"/><path style="baseline-shift:baseline;display:inline;overflow:visible;vector-effect:none;fill:#fff;stroke-width:.434183;stop-color:#000" d="M160.223 153.101v.332h8.88v-.332z" transform="translate(-55.245 -84.138)"/><path style="baseline-shift:baseline;display:inline;overflow:visible;vector-effect:none;fill:#fff;stroke-width:.209328;stop-color:#000" d="M173.144 150.222c-1.716 0-3.106 1.36-3.106 3.045 0 1.686 1.39 3.045 3.106 3.045h3.333c1.428 0 2.63-.942 2.993-2.23h-.346c-.351 1.103-1.398 1.898-2.647 1.898h-3.333c-1.541 0-2.773-1.21-2.773-2.713s1.232-2.712 2.773-2.712h3.333c1.25 0 2.296.795 2.647 1.898h.346c-.362-1.289-1.565-2.23-2.993-2.23zm16.909 3.178c-.07 1.624-1.432 2.912-3.103 2.912h-3.333c-1.428 0-2.63-.942-2.993-2.23h.346c.35 1.103 1.398 1.898 2.647 1.898h3.333c1.496 0 2.7-1.138 2.77-2.58zm-6.326-3.178c-1.67 0-3.032 1.289-3.103 2.913h.333c.07-1.442 1.274-2.58 2.77-2.58h3.333c1.25 0 2.296.795 2.647 1.898h.347c-.363-1.289-1.566-2.23-2.994-2.23z" transform="translate(-55.245 -84.138)"/><path style="baseline-shift:baseline;display:inline;overflow:visible;vector-effect:none;fill:#fff;stroke-width:.447334;stop-color:#000" d="M180.626 153.101v.332h9.425v-.332z" transform="translate(-55.245 -84.138)"/><path style="baseline-shift:baseline;display:inline;overflow:visible;vector-effect:none;fill:#fff;fill-opacity:.251866;stroke-width:.209328;stop-color:#000" d="M153.472 150.222c-1.716 0-3.106 1.36-3.106 3.045h.332c0-1.504 1.233-2.712 2.774-2.712h3.332c1.541 0 2.774 1.208 2.774 2.712h.332c0-1.686-1.39-3.045-3.106-3.045z" transform="translate(-55.245 -84.138)"/><path style="baseline-shift:baseline;display:inline;overflow:visible;vector-effect:none;fill:#fff;fill-opacity:.251866;stroke-width:.359566;stop-color:#000" d="M155.304 150.222h-.332v6.09h.332z" transform="translate(-55.245 -84.138)"/><path style="baseline-shift:baseline;display:inline;overflow:visible;vector-effect:none;fill:#fff;fill-opacity:.251866;stroke-width:.254257;stop-color:#000" d="M159.91 153.267h-.332v3.045h.332zm-9.212 0h-.332v3.045h.332z" transform="translate(-55.245 -84.138)"/><path style="baseline-shift:baseline;display:inline;overflow:visible;vector-effect:none;fill:#fff;fill-opacity:.251866;stroke-width:.209328;stop-color:#000" d="M143.51 150.222c-1.715 0-3.106 1.36-3.106 3.045 0 1.686 1.39 3.045 3.106 3.045h3.333c1.429 0 2.63-.942 2.993-2.23h-.345c-.351 1.103-1.398 1.898-2.648 1.898h-3.333c-1.54 0-2.773-1.21-2.773-2.713s1.232-2.712 2.773-2.712h3.333c1.25 0 2.297.795 2.648 1.898h.346c-.363-1.289-1.565-2.23-2.994-2.23z" transform="translate(-55.245 -84.138)"/><path style="baseline-shift:baseline;display:inline;overflow:visible;vector-effect:none;fill:#fff;fill-opacity:.251866;stroke-width:.373208;stop-color:#000" d="M140.616 153.101v.332h6.56v-.332z" transform="translate(-55.245 -84.138)"/><path style="baseline-shift:baseline;display:inline;overflow:visible;vector-effect:none;fill:#fff;fill-opacity:.251866;stroke-width:.209328;stop-color:#000" d="M164.055 150.222c-1.715 0-3.106 1.36-3.106 3.045h.333c0-1.504 1.232-2.712 2.773-2.712h3.333c1.54 0 2.773 1.208 2.773 2.712h.333c0-1.686-1.39-3.045-3.106-3.045z" transform="translate(-55.245 -84.138)"/><path style="baseline-shift:baseline;display:inline;overflow:visible;vector-effect:none;fill:#fff;fill-opacity:.251866;stroke-width:.254257;stop-color:#000" d="M170.494 153.267h-.333v3.045h.333zm-9.212 0h-.333v3.045h.333z" transform="translate(-55.245 -84.138)"/><path style="baseline-shift:baseline;display:inline;overflow:visible;vector-effect:none;fill:#fff;fill-opacity:.251866;stroke-width:.434183;stop-color:#000" d="M161.282 153.101v.332h8.88v-.332z" transform="translate(-55.245 -84.138)"/><path style="baseline-shift:baseline;display:inline;overflow:visible;vector-effect:none;fill:#fff;fill-opacity:.251866;stroke-width:.209328;stop-color:#000" d="M174.202 150.222c-1.716 0-3.106 1.36-3.106 3.045 0 1.686 1.39 3.045 3.106 3.045h3.333c1.428 0 2.63-.942 2.993-2.23h-.346c-.35 1.103-1.397 1.898-2.647 1.898h-3.333c-1.541 0-2.773-1.21-2.773-2.713s1.232-2.712 2.773-2.712h3.333c1.25 0 2.296.795 2.647 1.898h.347c-.363-1.289-1.566-2.23-2.994-2.23zm16.909 3.178c-.07 1.624-1.432 2.912-3.102 2.912h-3.333c-1.429 0-2.63-.942-2.993-2.23h.345c.351 1.103 1.398 1.898 2.648 1.898h3.333c1.495 0 2.7-1.138 2.77-2.58zm-6.326-3.178c-1.67 0-3.032 1.289-3.103 2.913h.333c.07-1.442 1.275-2.58 2.77-2.58h3.333c1.25 0 2.297.795 2.648 1.898h.346c-.363-1.289-1.565-2.23-2.994-2.23z" transform="translate(-55.245 -84.138)"/><path style="baseline-shift:baseline;display:inline;overflow:visible;vector-effect:none;fill:#fff;fill-opacity:.251866;stroke-width:.447334;stop-color:#000" d="M181.684 153.101v.332h9.426v-.332z" transform="translate(-55.245 -84.138)"/><path style="baseline-shift:baseline;display:inline;overflow:visible;vector-effect:none;fill:#fff;fill-opacity:.188433;stroke-width:.209328;stop-color:#000" d="M154.53 150.222c-1.715 0-3.106 1.36-3.106 3.045h.333c0-1.504 1.232-2.712 2.773-2.712h3.333c1.54 0 2.773 1.208 2.773 2.712h.333c0-1.686-1.39-3.045-3.106-3.045z" transform="translate(-55.245 -84.138)"/><path style="baseline-shift:baseline;display:inline;overflow:visible;vector-effect:none;fill:#fff;fill-opacity:.188433;stroke-width:.359566;stop-color:#000" d="M156.363 150.222h-.333v6.09h.333z" transform="translate(-55.245 -84.138)"/><path style="baseline-shift:baseline;display:inline;overflow:visible;vector-effect:none;fill:#fff;fill-opacity:.188433;stroke-width:.254257;stop-color:#000" d="M160.969 153.267h-.333v3.045h.333zm-9.212 0h-.333v3.045h.333z" transform="translate(-55.245 -84.138)"/><path style="baseline-shift:baseline;display:inline;overflow:visible;vector-effect:none;fill:#fff;fill-opacity:.188433;stroke-width:.209328;stop-color:#000" d="M144.569 150.222c-1.716 0-3.106 1.36-3.106 3.045 0 1.686 1.39 3.045 3.106 3.045h3.333c1.428 0 2.63-.942 2.993-2.23h-.346c-.351 1.103-1.398 1.898-2.647 1.898h-3.333c-1.541 0-2.773-1.21-2.773-2.713s1.232-2.712 2.773-2.712h3.333c1.25 0 2.296.795 2.647 1.898h.346c-.362-1.289-1.565-2.23-2.993-2.23z" transform="translate(-55.245 -84.138)"/><path style="baseline-shift:baseline;display:inline;overflow:visible;vector-effect:none;fill:#fff;fill-opacity:.188433;stroke-width:.373208;stop-color:#000" d="M141.674 153.101v.332h6.56v-.332z" transform="translate(-55.245 -84.138)"/><path style="baseline-shift:baseline;display:inline;overflow:visible;vector-effect:none;fill:#fff;fill-opacity:.188433;stroke-width:.209328;stop-color:#000" d="M165.114 150.222c-1.716 0-3.106 1.36-3.106 3.045h.332c0-1.504 1.233-2.712 2.773-2.712h3.333c1.541 0 2.774 1.208 2.774 2.712h.332c0-1.686-1.39-3.045-3.106-3.045z" transform="translate(-55.245 -84.138)"/><path style="baseline-shift:baseline;display:inline;overflow:visible;vector-effect:none;fill:#fff;fill-opacity:.188433;stroke-width:.254257;stop-color:#000" d="M171.552 153.267h-.332v3.045h.332zm-9.212 0h-.332v3.045h.332z" transform="translate(-55.245 -84.138)"/><path style="baseline-shift:baseline;display:inline;overflow:visible;vector-effect:none;fill:#fff;fill-opacity:.188433;stroke-width:.434183;stop-color:#000" d="M162.34 153.101v.332h8.88v-.332z" transform="translate(-55.245 -84.138)"/><path style="baseline-shift:baseline;display:inline;overflow:visible;vector-effect:none;fill:#fff;fill-opacity:.188433;stroke-width:.209328;stop-color:#000" d="M175.26 150.222c-1.715 0-3.106 1.36-3.106 3.045 0 1.686 1.39 3.045 3.106 3.045h3.333c1.429 0 2.63-.942 2.993-2.23h-.345c-.351 1.103-1.398 1.898-2.648 1.898h-3.333c-1.54 0-2.773-1.21-2.773-2.713s1.232-2.712 2.773-2.712h3.333c1.25 0 2.297.795 2.648 1.898h.346c-.363-1.289-1.565-2.23-2.994-2.23zm16.91 3.178c-.071 1.624-1.433 2.912-3.103 2.912h-3.333c-1.428 0-2.63-.942-2.993-2.23h.346c.35 1.103 1.397 1.898 2.647 1.898h3.333c1.495 0 2.7-1.138 2.77-2.58zm-6.326-3.178c-1.671 0-3.033 1.289-3.103 2.913h.333c.07-1.442 1.274-2.58 2.77-2.58h3.333c1.25 0 2.296.795 2.647 1.898h.346c-.362-1.289-1.565-2.23-2.993-2.23z" transform="translate(-55.245 -84.138)"/><path style="baseline-shift:baseline;display:inline;overflow:visible;vector-effect:none;fill:#fff;fill-opacity:.188433;stroke-width:.447334;stop-color:#000" d="M182.743 153.101v.332h9.425v-.332z" transform="translate(-55.245 -84.138)"/><path style="baseline-shift:baseline;display:inline;overflow:visible;vector-effect:none;fill:#fff;fill-opacity:.115672;stroke-width:.209328;stop-color:#000" d="M155.588 150.222c-1.715 0-3.105 1.36-3.105 3.045h.332c0-1.504 1.233-2.712 2.773-2.712h3.333c1.541 0 2.774 1.208 2.774 2.712h.332c0-1.686-1.39-3.045-3.106-3.045z" transform="translate(-55.245 -84.138)"/><path style="baseline-shift:baseline;display:inline;overflow:visible;vector-effect:none;fill:#fff;fill-opacity:.115672;stroke-width:.359566;stop-color:#000" d="M157.42 150.222h-.331v6.09h.332z" transform="translate(-55.245 -84.138)"/><path style="baseline-shift:baseline;display:inline;overflow:visible;vector-effect:none;fill:#fff;fill-opacity:.115672;stroke-width:.254257;stop-color:#000" d="M162.027 153.267h-.332v3.045h.332zm-9.212 0h-.332v3.045h.332z" transform="translate(-55.245 -84.138)"/><path style="baseline-shift:baseline;display:inline;overflow:visible;vector-effect:none;fill:#fff;fill-opacity:.115672;stroke-width:.209328;stop-color:#000" d="M145.627 150.222c-1.716 0-3.106 1.36-3.106 3.045 0 1.686 1.39 3.045 3.106 3.045h3.333c1.428 0 2.63-.942 2.993-2.23h-.346c-.35 1.103-1.397 1.898-2.647 1.898h-3.333c-1.541 0-2.773-1.21-2.773-2.713s1.232-2.712 2.773-2.712h3.333c1.25 0 2.296.795 2.647 1.898h.347c-.363-1.289-1.566-2.23-2.994-2.23z" transform="translate(-55.245 -84.138)"/><path style="baseline-shift:baseline;display:inline;overflow:visible;vector-effect:none;fill:#fff;fill-opacity:.115672;stroke-width:.373208;stop-color:#000" d="M142.732 153.101v.332h6.56v-.332z" transform="translate(-55.245 -84.138)"/><path style="baseline-shift:baseline;display:inline;overflow:visible;vector-effect:none;fill:#fff;fill-opacity:.115672;stroke-width:.209328;stop-color:#000" d="M166.172 150.222c-1.716 0-3.106 1.36-3.106 3.045h.332c0-1.504 1.233-2.712 2.774-2.712h3.332c1.541 0 2.774 1.208 2.774 2.712h.332c0-1.686-1.39-3.045-3.106-3.045z" transform="translate(-55.245 -84.138)"/><path style="baseline-shift:baseline;display:inline;overflow:visible;vector-effect:none;fill:#fff;fill-opacity:.115672;stroke-width:.254257;stop-color:#000" d="M172.61 153.267h-.332v3.045h.332zm-9.212 0h-.332v3.045h.332z" transform="translate(-55.245 -84.138)"/><path style="baseline-shift:baseline;display:inline;overflow:visible;vector-effect:none;fill:#fff;fill-opacity:.115672;stroke-width:.434183;stop-color:#000" d="M163.398 153.101v.332h8.88v-.332z" transform="translate(-55.245 -84.138)"/><path style="baseline-shift:baseline;display:inline;overflow:visible;vector-effect:none;fill:#fff;fill-opacity:.115672;stroke-width:.209328;stop-color:#000" d="M176.319 150.222c-1.716 0-3.106 1.36-3.106 3.045 0 1.686 1.39 3.045 3.106 3.045h3.333c1.428 0 2.63-.942 2.993-2.23h-.346c-.351 1.103-1.398 1.898-2.647 1.898h-3.333c-1.541 0-2.773-1.21-2.773-2.713s1.232-2.712 2.773-2.712h3.333c1.25 0 2.296.795 2.647 1.898h.346c-.362-1.289-1.565-2.23-2.993-2.23zm16.909 3.178c-.07 1.624-1.432 2.912-3.103 2.912h-3.333c-1.428 0-2.63-.942-2.993-2.23h.346c.35 1.103 1.398 1.898 2.647 1.898h3.333c1.496 0 2.7-1.138 2.77-2.58zm-6.326-3.178c-1.67 0-3.032 1.289-3.103 2.913h.333c.07-1.442 1.274-2.58 2.77-2.58h3.333c1.25 0 2.296.795 2.647 1.898h.347c-.363-1.289-1.566-2.23-2.994-2.23z" transform="translate(-55.245 -84.138)"/><path style="baseline-shift:baseline;display:inline;overflow:visible;vector-effect:none;fill:#fff;fill-opacity:.115672;stroke-width:.447334;stop-color:#000" d="M183.8 153.101v.332h9.426v-.332z" transform="translate(-55.245 -84.138)"/><path style="baseline-shift:baseline;display:inline;overflow:visible;vector-effect:none;fill:#fff;fill-opacity:.0690299;stroke-width:.209328;stop-color:#000" d="M156.647 150.222c-1.716 0-3.106 1.36-3.106 3.045h.332c0-1.504 1.233-2.712 2.774-2.712h3.332c1.541 0 2.774 1.208 2.774 2.712h.332c0-1.686-1.39-3.045-3.106-3.045z" transform="translate(-55.245 -84.138)"/><path style="baseline-shift:baseline;display:inline;overflow:visible;vector-effect:none;fill:#fff;fill-opacity:.0690299;stroke-width:.359566;stop-color:#000" d="M158.48 150.222h-.333v6.09h.332z" transform="translate(-55.245 -84.138)"/><path style="baseline-shift:baseline;display:inline;overflow:visible;vector-effect:none;fill:#fff;fill-opacity:.0690299;stroke-width:.254257;stop-color:#000" d="M163.085 153.267h-.332v3.045h.332zm-9.212 0h-.332v3.045h.332z" transform="translate(-55.245 -84.138)"/><path style="baseline-shift:baseline;display:inline;overflow:visible;vector-effect:none;fill:#fff;fill-opacity:.0690299;stroke-width:.209328;stop-color:#000" d="M146.685 150.222c-1.715 0-3.106 1.36-3.106 3.045 0 1.686 1.39 3.045 3.106 3.045h3.333c1.429 0 2.63-.942 2.993-2.23h-.345c-.351 1.103-1.398 1.898-2.648 1.898h-3.333c-1.54 0-2.773-1.21-2.773-2.713s1.232-2.712 2.773-2.712h3.333c1.25 0 2.297.795 2.648 1.898h.346c-.363-1.289-1.565-2.23-2.994-2.23z" transform="translate(-55.245 -84.138)"/><path style="baseline-shift:baseline;display:inline;overflow:visible;vector-effect:none;fill:#fff;fill-opacity:.0690299;stroke-width:.373208;stop-color:#000" d="M143.79 153.101v.332h6.561v-.332z" transform="translate(-55.245 -84.138)"/><path style="baseline-shift:baseline;display:inline;overflow:visible;vector-effect:none;fill:#fff;fill-opacity:.0690299;stroke-width:.209328;stop-color:#000" d="M167.23 150.222c-1.715 0-3.106 1.36-3.106 3.045h.333c0-1.504 1.232-2.712 2.773-2.712h3.333c1.54 0 2.773 1.208 2.773 2.712h.333c0-1.686-1.39-3.045-3.106-3.045z" transform="translate(-55.245 -84.138)"/><path style="baseline-shift:baseline;display:inline;overflow:visible;vector-effect:none;fill:#fff;fill-opacity:.0690299;stroke-width:.254257;stop-color:#000" d="M173.669 153.267h-.333v3.045h.333zm-9.212 0h-.333v3.045h.333z" transform="translate(-55.245 -84.138)"/><path style="baseline-shift:baseline;display:inline;overflow:visible;vector-effect:none;fill:#fff;fill-opacity:.0690299;stroke-width:.434183;stop-color:#000" d="M164.457 153.101v.332h8.88v-.332z" transform="translate(-55.245 -84.138)"/><path style="baseline-shift:baseline;display:inline;overflow:visible;vector-effect:none;fill:#fff;fill-opacity:.0690299;stroke-width:.209328;stop-color:#000" d="M177.377 150.222c-1.716 0-3.106 1.36-3.106 3.045 0 1.686 1.39 3.045 3.106 3.045h3.333c1.428 0 2.63-.942 2.993-2.23h-.346c-.35 1.103-1.397 1.898-2.647 1.898h-3.333c-1.541 0-2.773-1.21-2.773-2.713s1.232-2.712 2.773-2.712h3.333c1.25 0 2.296.795 2.647 1.898h.347c-.363-1.289-1.566-2.23-2.994-2.23zm16.909 3.178c-.07 1.624-1.432 2.912-3.102 2.912h-3.333c-1.429 0-2.63-.942-2.993-2.23h.345c.351 1.103 1.398 1.898 2.648 1.898h3.333c1.495 0 2.7-1.138 2.77-2.58zm-6.326-3.178c-1.67 0-3.032 1.289-3.102 2.913h.332c.07-1.442 1.275-2.58 2.77-2.58h3.333c1.25 0 2.297.795 2.648 1.898h.346c-.363-1.289-1.565-2.23-2.994-2.23z" transform="translate(-55.245 -84.138)"/><path style="baseline-shift:baseline;display:inline;overflow:visible;vector-effect:none;fill:#fff;fill-opacity:.0690299;stroke-width:.447334;stop-color:#000" d="M184.86 153.101v.332h9.425v-.332z" transform="translate(-55.245 -84.138)"/><path style="baseline-shift:baseline;display:inline;overflow:visible;vector-effect:none;fill:#fff;fill-opacity:.0391791;stroke-width:.209328;stop-color:#000" d="M157.705 150.222c-1.715 0-3.106 1.36-3.106 3.045h.333c0-1.504 1.232-2.712 2.773-2.712h3.333c1.54 0 2.773 1.208 2.773 2.712h.333c0-1.686-1.39-3.045-3.106-3.045z" transform="translate(-55.245 -84.138)"/><path style="baseline-shift:baseline;display:inline;overflow:visible;vector-effect:none;fill:#fff;fill-opacity:.0391791;stroke-width:.359566;stop-color:#000" d="M159.538 150.222h-.333v6.09h.333z" transform="translate(-55.245 -84.138)"/><path style="baseline-shift:baseline;display:inline;overflow:visible;vector-effect:none;fill:#fff;fill-opacity:.0391791;stroke-width:.254257;stop-color:#000" d="M164.144 153.267h-.333v3.045h.333zm-9.212 0h-.333v3.045h.333z" transform="translate(-55.245 -84.138)"/><path style="baseline-shift:baseline;display:inline;overflow:visible;vector-effect:none;fill:#fff;fill-opacity:.0391791;stroke-width:.209328;stop-color:#000" d="M147.744 150.222c-1.716 0-3.106 1.36-3.106 3.045 0 1.686 1.39 3.045 3.106 3.045h3.333c1.428 0 2.63-.942 2.993-2.23h-.346c-.351 1.103-1.398 1.898-2.647 1.898h-3.333c-1.541 0-2.773-1.21-2.773-2.713s1.232-2.712 2.773-2.712h3.333c1.25 0 2.296.795 2.647 1.898h.346c-.362-1.289-1.565-2.23-2.993-2.23z" transform="translate(-55.245 -84.138)"/><path style="baseline-shift:baseline;display:inline;overflow:visible;vector-effect:none;fill:#fff;fill-opacity:.0391791;stroke-width:.373208;stop-color:#000" d="M144.849 153.101v.332h6.56v-.332z" transform="translate(-55.245 -84.138)"/><path style="baseline-shift:baseline;display:inline;overflow:visible;vector-effect:none;fill:#fff;fill-opacity:.0391791;stroke-width:.209328;stop-color:#000" d="M168.289 150.222c-1.716 0-3.106 1.36-3.106 3.045h.332c0-1.504 1.233-2.712 2.774-2.712h3.332c1.541 0 2.774 1.208 2.774 2.712h.332c0-1.686-1.39-3.045-3.106-3.045z" transform="translate(-55.245 -84.138)"/><path style="baseline-shift:baseline;display:inline;overflow:visible;vector-effect:none;fill:#fff;fill-opacity:.0391791;stroke-width:.254257;stop-color:#000" d="M174.727 153.267h-.332v3.045h.332zm-9.212 0h-.332v3.045h.332z" transform="translate(-55.245 -84.138)"/><path style="baseline-shift:baseline;display:inline;overflow:visible;vector-effect:none;fill:#fff;fill-opacity:.0391791;stroke-width:.434183;stop-color:#000" d="M165.515 153.101v.332h8.88v-.332z" transform="translate(-55.245 -84.138)"/><path style="baseline-shift:baseline;display:inline;overflow:visible;vector-effect:none;fill:#fff;fill-opacity:.0391791;stroke-width:.209328;stop-color:#000" d="M178.435 150.222c-1.715 0-3.106 1.36-3.106 3.045 0 1.686 1.39 3.045 3.106 3.045h3.333c1.429 0 2.63-.942 2.993-2.23h-.345c-.351 1.103-1.398 1.898-2.648 1.898h-3.333c-1.54 0-2.773-1.21-2.773-2.713s1.232-2.712 2.773-2.712h3.333c1.25 0 2.297.795 2.648 1.898h.346c-.363-1.289-1.565-2.23-2.994-2.23zm16.91 3.178c-.071 1.624-1.433 2.912-3.103 2.912h-3.333c-1.428 0-2.63-.942-2.993-2.23h.346c.35 1.103 1.397 1.898 2.647 1.898h3.333c1.495 0 2.7-1.138 2.77-2.58zm-6.326-3.178c-1.671 0-3.033 1.289-3.103 2.913h.333c.07-1.442 1.274-2.58 2.77-2.58h3.333c1.25 0 2.296.795 2.647 1.898h.346c-.362-1.289-1.565-2.23-2.993-2.23z" transform="translate(-55.245 -84.138)"/><path style="baseline-shift:baseline;display:inline;overflow:visible;vector-effect:none;fill:#fff;fill-opacity:.0391791;stroke-width:.447334;stop-color:#000" d="M185.918 153.101v.332h9.425v-.332z" transform="translate(-55.245 -84.138)"/></svg>
